<svg width="35" height="35" viewBox="0 0 35 35" fill="none" xmlns="http://www.w3.org/2000/svg">
<path fill-rule="evenodd" clip-rule="evenodd" d="M19.7075 5.55016C21.2724 3.98281 23.8107 3.98186 25.3769 5.54802L29.0108 9.18197C30.5637 10.7348 30.5798 13.2486 29.047 14.8212L15.582 28.6364C14.5531 29.692 13.142 30.2873 11.6684 30.2872L7.65487 30.2871C5.7893 30.287 4.29944 28.7318 4.3779 26.8665L4.55021 22.77C4.60781 21.4006 5.17697 20.1027 6.14506 19.1331L19.7075 5.55016ZM23.8313 7.09599C23.1194 6.38409 21.9656 6.38453 21.2543 7.09696L18.8289 9.52597L25.0703 15.7673L27.4817 13.2932C28.1784 12.5784 28.171 11.4358 27.4652 10.7299L23.8313 7.09599ZM7.69186 20.6799L17.2833 11.0739L23.5433 17.334L14.0167 27.1084C13.3993 27.7418 12.5526 28.0989 11.6685 28.0989L7.65496 28.0987C7.0331 28.0987 6.53649 27.5803 6.56264 26.9586L6.73495 22.8621C6.76951 22.0404 7.111 21.2616 7.69186 20.6799ZM29.9174 30.1803C30.5212 30.1803 31.0107 29.6904 31.0107 29.0861C31.0107 28.4818 30.5212 27.9919 29.9174 27.9919H20.9899C20.386 27.9919 19.8965 28.4818 19.8965 29.0861C19.8965 29.6904 20.386 30.1803 20.9899 30.1803H29.9174Z" fill="#9A9A9A"/>
</svg>
