<svg width="33" height="33" viewBox="0 0 33 33" fill="none" xmlns="http://www.w3.org/2000/svg">
<path fill-rule="evenodd" clip-rule="evenodd" d="M29.2266 16.125C29.2266 23.3608 23.3608 29.2266 16.125 29.2266C8.88921 29.2266 3.02344 23.3608 3.02344 16.125C3.02344 8.88921 8.88921 3.02344 16.125 3.02344C23.3608 3.02344 29.2266 8.88921 29.2266 16.125ZM5.03909 16.125C5.03909 22.2476 10.0024 27.2109 16.125 27.2109C22.2476 27.2109 27.211 22.2476 27.211 16.125C27.211 10.0024 22.2476 5.03907 16.125 5.03907C10.0024 5.03907 5.03909 10.0024 5.03909 16.125Z" fill="#9A9A9A"/>
<path d="M16.125 14.1094C16.6418 14.1094 17.0678 14.4984 17.126 14.9997L17.1328 15.1172V22.1719C17.1328 22.7285 16.6816 23.1797 16.125 23.1797C15.6082 23.1797 15.1822 22.7906 15.124 22.2894L15.1172 22.1719V15.1172C15.1172 14.5606 15.5684 14.1094 16.125 14.1094Z" fill="#9A9A9A"/>
<rect x="17.1328" y="12.0938" width="2.01563" height="2.01563" transform="rotate(-180 17.1328 12.0938)" fill="#9A9A9A"/>
</svg>
