<svg width="33" height="33" viewBox="0 0 33 33" fill="none" xmlns="http://www.w3.org/2000/svg">
<path fill-rule="evenodd" clip-rule="evenodd" d="M14.776 3.02874L14.9562 3.02344H17.2938C18.8663 3.02344 20.1762 4.22877 20.3068 5.79562L20.4052 6.97406L20.5094 7.02184C20.9642 7.23845 21.4018 7.48889 21.8187 7.77079L21.9159 7.83877L22.9795 7.33886C24.3449 6.69526 25.9652 7.15961 26.7882 8.40261L26.8869 8.56201L28.0557 10.5864C28.8419 11.9482 28.453 13.6853 27.1615 14.5818L26.2172 15.2361L26.2295 15.3592C26.239 15.4862 26.2462 15.6135 26.251 15.7411L26.2582 16.125C26.2582 16.3815 26.2486 16.6369 26.2295 16.8908L26.2172 17.0129L27.1613 17.6681C28.4014 18.5288 28.8094 20.1642 28.1444 21.4984L28.0557 21.6636L26.8869 23.688C26.1007 25.0498 24.4018 25.5816 22.9796 24.9112L21.9159 24.4102L21.8189 24.479C21.4022 24.7608 20.9648 25.0112 20.5103 25.2278L20.4062 25.2749L20.3068 26.4542C20.1812 27.961 18.9653 29.1333 17.474 29.2213L17.2938 29.2266H14.9562C13.3838 29.2266 12.0738 28.0212 11.9432 26.4544L11.8398 25.2195L11.6519 25.1308C11.2765 24.9417 10.9134 24.7293 10.5648 24.495L10.3996 24.379L9.27054 24.9111C7.90506 25.5547 6.28481 25.0904 5.46177 23.8474L5.36312 23.688L4.19432 21.6636C3.40809 20.3018 3.79696 18.5647 5.08842 17.6683L6.13557 16.9403L6.12775 16.8516C6.11916 16.7311 6.1127 16.6103 6.10839 16.4892L6.10192 16.125C6.10192 15.8815 6.11058 15.639 6.1278 15.3979L6.13557 15.3077L5.08875 14.5819C3.84864 13.7212 3.44065 12.0858 4.1056 10.7516L4.19432 10.5864L5.36312 8.56201C6.14934 7.20023 7.84817 6.66844 9.27002 7.33862L10.3996 7.87001L10.5648 7.75504C10.9134 7.52072 11.2765 7.30832 11.6519 7.11924L11.8398 7.02949L11.9432 5.79579C12.0688 4.28904 13.2847 3.11669 14.776 3.02874ZM17.2938 5.03906H14.9562C14.432 5.03906 13.9954 5.44084 13.9518 5.9634L13.7474 8.41043L13.1711 8.6424C12.4421 8.93589 11.7603 9.3352 11.1467 9.82621L10.6562 10.2187L8.41116 9.16211C7.93704 8.93864 7.37076 9.1159 7.10869 9.56983L5.93989 11.5942C5.67782 12.0482 5.80744 12.6272 6.23797 12.926L8.28881 14.3492L8.20014 14.9656C8.14528 15.3471 8.11754 15.7341 8.11754 16.125C8.11754 16.5156 8.14523 16.9023 8.20001 17.2835L8.28855 17.8995L6.23804 19.3239C5.80744 19.6228 5.67782 20.2018 5.93989 20.6558L7.10869 22.6802C7.37076 23.1341 7.93704 23.3114 8.41168 23.0876L10.6562 22.0313L11.1467 22.4238C11.7603 22.9148 12.4421 23.3141 13.1711 23.6076L13.7474 23.8396L13.9519 26.2868C13.9954 26.8092 14.432 27.2109 14.9562 27.2109H17.2938C17.8179 27.2109 18.2546 26.8092 18.2982 26.2861L18.5009 23.8746L19.0886 23.6472C19.8411 23.356 20.545 22.9527 21.1776 22.4523L21.6674 22.0648L23.8388 23.0879C24.313 23.3114 24.8792 23.1341 25.1413 22.6802L26.3101 20.6558C26.5722 20.2018 26.4425 19.6228 26.0117 19.3238L24.0568 17.9661L24.1509 17.3454C24.2118 16.9442 24.2425 16.5367 24.2425 16.125C24.2425 15.7133 24.2118 15.3058 24.1509 14.9047L24.0568 14.2839L26.012 12.9261C26.4425 12.6272 26.5722 12.0482 26.3101 11.5942L25.1413 9.56983C24.8792 9.1159 24.313 8.93864 23.8387 9.16216L21.6674 10.1852L21.1776 9.79775C20.5448 9.29712 19.8406 8.89368 19.0877 8.60247L18.4995 8.37492L18.2981 5.96318C18.2546 5.44084 17.8179 5.03906 17.2938 5.03906Z" fill="#9A9A9A"/>
<path fill-rule="evenodd" clip-rule="evenodd" d="M11.141 16.125C11.141 13.342 13.3971 11.0859 16.1801 11.0859C18.9631 11.0859 21.2191 13.342 21.2191 16.125C21.2191 18.908 18.9631 21.1641 16.1801 21.1641C13.3971 21.1641 11.141 18.908 11.141 16.125ZM19.2035 16.125C19.2035 14.4552 17.8498 13.1016 16.18 13.1016C14.5102 13.1016 13.1566 14.4552 13.1566 16.125C13.1566 17.7948 14.5102 19.1484 16.18 19.1484C17.8498 19.1484 19.2035 17.7948 19.2035 16.125Z" fill="#9A9A9A"/>
</svg>
