<svg width="33" height="33" viewBox="0 0 33 33" fill="none" xmlns="http://www.w3.org/2000/svg">
<path fill-rule="evenodd" clip-rule="evenodd" d="M10.5266 9.04394C10.5266 5.71406 13.226 3.01465 16.5559 3.01465C19.8858 3.01465 22.5852 5.71406 22.5852 9.04394C22.5852 12.3738 19.8858 15.0732 16.5559 15.0732C13.226 15.0732 10.5266 12.3738 10.5266 9.04394ZM20.5754 9.04394C20.5754 6.82402 18.7758 5.02441 16.5559 5.02441C14.336 5.02441 12.5364 6.82402 12.5364 9.04394C12.5364 11.2639 14.336 13.0635 16.5559 13.0635C18.7758 13.0635 20.5754 11.2639 20.5754 9.04394Z" fill="#9A9A9A"/>
<path fill-rule="evenodd" clip-rule="evenodd" d="M6.50708 24.8992C6.50708 19.9922 11.036 16.0781 16.5559 16.0781C22.0758 16.0781 26.6047 19.9922 26.6047 24.8992C26.6047 30.5557 6.50708 30.5557 6.50708 24.8992ZM24.595 24.8991C24.595 21.1726 21.0257 18.0879 16.5559 18.0879C12.0861 18.0879 8.51684 21.1726 8.51684 24.8991C8.51684 26.0209 10.7997 26.7199 13.6451 26.9963L14.3109 27.0526C15.7717 27.1582 17.3401 27.1582 18.8009 27.0526L19.4667 26.9963C22.3121 26.7199 24.595 26.0209 24.595 24.8991Z" fill="#9A9A9A"/>
</svg>
