<svg width="33" height="33" viewBox="0 0 33 33" fill="none" xmlns="http://www.w3.org/2000/svg">
<path fill-rule="evenodd" clip-rule="evenodd" d="M3.02338 16.1245C3.02338 8.88893 8.889 3.02332 16.1246 3.02332C23.3602 3.02332 29.2258 8.88893 29.2258 16.1245C29.2258 23.3601 23.3602 29.2258 16.1246 29.2258C8.889 29.2258 3.02338 23.3601 3.02338 16.1245ZM27.2102 16.1245C27.2102 10.0021 22.247 5.03889 16.1246 5.03889C10.0021 5.03889 5.03893 10.0021 5.03893 16.1245C5.03893 22.247 10.0021 27.2102 16.1246 27.2102C22.247 27.2102 27.2102 22.247 27.2102 16.1245Z" fill="#9A9A9A"/>
<path fill-rule="evenodd" clip-rule="evenodd" d="M9.07007 16.1245C9.07007 8.96035 12.0386 3.02332 16.1246 3.02332C20.2106 3.02332 23.1791 8.96035 23.1791 16.1245C23.1791 23.2887 20.2106 29.2258 16.1246 29.2258C12.0386 29.2258 9.07007 23.2887 9.07007 16.1245ZM21.1635 16.1245C21.1635 9.93069 18.7176 5.03889 16.1246 5.03889C13.5316 5.03889 11.0857 9.93069 11.0857 16.1245C11.0857 22.3184 13.5316 27.2102 16.1246 27.2102C18.7176 27.2102 21.1635 22.3184 21.1635 16.1245Z" fill="#9A9A9A"/>
<path d="M5.03894 12.0935V10.0779L27.2102 10.0779V12.0935H5.03894Z" fill="#9A9A9A"/>
<path d="M5.03894 22.1713V20.1558L27.2102 20.1558V22.1713H5.03894Z" fill="#9A9A9A"/>
</svg>
